<svg fill="none" height="42" viewBox="0 0 50 42" width="50" xmlns="http://www.w3.org/2000/svg" xmlns:xlink="http://www.w3.org/1999/xlink"><linearGradient id="a" gradientUnits="userSpaceOnUse" x1="0" x2="50" y1="21" y2="21"><stop offset="0" stop-color="#5b98ff"/><stop offset="1" stop-color="#b06fdd"/></linearGradient><path d="m17.8947 30.1188c0 3.9371 3.1941 7.1287 7.1342 7.1287 3.94 0 7.1341-3.1916 7.1341-7.1287h4.7561c0 6.5622-5.3235 11.8812-11.8902 11.8812-6.5668 0-11.8902-5.3194-11.8902-11.8812zm9.8094-28.12634c7.1086-4.10139 16.1987-1.667527 20.3008 5.43326 4.1063 7.10618 1.6705 16.18868-5.438 20.29308l-2.9726-5.1446c4.2661-2.4606 5.7282-7.9111 3.2657-12.174-2.4626-4.26289-7.9172-5.72386-12.1833-3.26319zm-25.71013 5.43326c4.1039-7.100787 13.19393-9.53465 20.30013-5.43326l-2.9725 5.14455c-4.2662-2.46067-9.7208-.9997-12.18334 3.26319-2.46254 4.2629-1.00046 9.7134 3.26564 12.174l-2.97254 5.1416c-7.106181-4.1014-9.54189-13.1845-5.43739-20.29008z" fill="url(#a)"/><g fill="#d2e1ff"><path d="m8.92 28.1138c1.6417 0 2.9725-1.3298 2.9725-2.9703 0-1.6404-1.3308-2.9703-2.9725-2.9703s-2.97255 1.3299-2.97255 2.9703c0 1.6405 1.33085 2.9703 2.97255 2.9703z"/><path d="m14.8651 19.3093c2.4626 0 4.4589-1.9948 4.4589-4.4554 0-2.4607-1.9963-4.4555-4.4589-4.4555-2.4625 0-4.4588 1.9948-4.4588 4.4555 0 2.4606 1.9963 4.4554 4.4588 4.4554z"/><path d="m20.8102 7.53502c1.6417 0 2.9725-1.32985 2.9725-2.9703s-1.3308-2.9703-2.9725-2.9703-2.9726 1.32985-2.9726 2.9703 1.3309 2.9703 2.9726 2.9703z"/><path d="m29.1904 7.53502c1.6417 0 2.9726-1.32985 2.9726-2.9703s-1.3309-2.9703-2.9726-2.9703c-1.6416 0-2.9725 1.32985-2.9725 2.9703s1.3309 2.9703 2.9725 2.9703z"/><path d="m35.1355 19.3093c2.4626 0 4.4588-1.9948 4.4588-4.4554 0-2.4607-1.9962-4.4555-4.4588-4.4555-2.4625 0-4.4588 1.9948-4.4588 4.4555 0 2.4606 1.9963 4.4554 4.4588 4.4554z"/><path d="m41.0806 28.1138c1.6417 0 2.9726-1.3298 2.9726-2.9703 0-1.6404-1.3309-2.9703-2.9726-2.9703s-2.9725 1.3299-2.9725 2.9703c0 1.6405 1.3308 2.9703 2.9725 2.9703z"/><path d="m34.541 32.4951c1.3134 0 2.378-1.0639 2.378-2.3763 0-1.3123-1.0646-2.3762-2.378-2.3762s-2.378 1.0639-2.378 2.3762c0 1.3124 1.0646 2.3763 2.378 2.3763z"/><path d="m25.0289 33.6832c1.97 0 3.567-1.5959 3.567-3.5644s-1.597-3.5644-3.567-3.5644c-1.9701 0-3.5671 1.5959-3.5671 3.5644s1.597 3.5644 3.5671 3.5644z"/><path d="m15.5167 32.4951c1.3134 0 2.3781-1.0639 2.3781-2.3763 0-1.3123-1.0647-2.3762-2.3781-2.3762-1.3133 0-2.378 1.0639-2.378 2.3762 0 1.3124 1.0647 2.3763 2.378 2.3763z"/></g></svg>